<svg width="1600" height="1600" viewBox="0 0 1600 1600" fill="none" xmlns="http://www.w3.org/2000/svg">
  <rect width="1600" height="1600" fill="#0B0C0E"/>
  <g opacity=".38">
    <path d="M247 1057C354 969 415 863 430 738C447 596 389 518 439 393C488 271 628 182 755 184C882 186 956 277 994 376C1037 488 985 580 1018 706C1058 862 1219 902 1287 1043C1367 1208 1240 1386 1058 1431C877 1476 689 1400 606 1260C527 1127 568 1023 486 987C420 958 349 1005 247 1057Z" stroke="#7FE0C3" stroke-width="2.2"/>
    <path d="M344 1052C441 966 501 875 516 762C534 626 472 546 520 435C567 326 687 256 798 263C909 270 973 354 1004 450C1038 558 989 644 1028 751C1071 870 1191 914 1240 1035C1298 1177 1185 1323 1031 1357C876 1391 724 1324 660 1201C600 1086 636 1012 558 962C488 917 420 997 344 1052Z" stroke="#B8BDC6" stroke-width="1.3"/>
    <path d="M431 1034C509 958 581 893 596 786C613 663 550 583 589 490C628 397 726 344 815 356C903 368 955 437 978 523C1003 618 957 692 999 781C1040 870 1139 915 1173 1018C1214 1141 1118 1255 995 1279C872 1303 755 1247 711 1144C670 1049 697 999 628 942C560 886 500 978 431 1034Z" stroke="#7FE0C3" stroke-width="1.7"/>
    <path d="M514 1014C584 944 655 901 668 803C682 699 623 624 652 549C681 474 757 436 827 448C897 460 936 514 952 587C970 667 930 726 974 800C1015 868 1091 915 1115 1003C1144 1110 1067 1196 968 1211C868 1227 780 1181 751 1098C722 1018 738 993 682 929C624 863 572 956 514 1014Z" stroke="#DDE4E8" stroke-width="1"/>
    <path d="M602 986C660 932 721 897 731 817C743 727 695 666 718 607C741 549 797 524 848 536C899 547 925 588 936 647C948 710 918 754 958 814C994 868 1050 914 1063 986C1080 1075 1018 1133 939 1138C861 1143 800 1107 784 1042C769 978 780 970 736 910C690 847 650 941 602 986Z" stroke="#7FE0C3" stroke-width="1.5"/>
    <path d="M692 946C735 907 779 879 786 826C795 760 762 721 778 682C794 642 829 629 861 639C894 648 910 674 917 715C925 757 908 786 939 829C966 867 997 907 1003 956C1010 1019 968 1048 916 1045C865 1041 829 1018 825 979C821 940 825 936 796 892C766 846 726 914 692 946Z" stroke="#B8BDC6" stroke-width="1"/>
  </g>
  <g opacity=".52">
    <path d="M174 272H622" stroke="#B8BDC6" stroke-opacity=".18"/>
    <path d="M978 289H1421" stroke="#B8BDC6" stroke-opacity=".16"/>
    <path d="M180 1287H500" stroke="#B8BDC6" stroke-opacity=".17"/>
    <path d="M1084 1287H1437" stroke="#B8BDC6" stroke-opacity=".17"/>
    <path d="M800 78V371" stroke="#B8BDC6" stroke-opacity=".12"/>
    <path d="M800 1218V1517" stroke="#B8BDC6" stroke-opacity=".12"/>
  </g>
  <g opacity=".88">
    <circle cx="755" cy="184" r="4" fill="#7FE0C3"/>
    <circle cx="994" cy="376" r="3" fill="#7FE0C3"/>
    <circle cx="606" cy="1260" r="3.5" fill="#7FE0C3"/>
    <circle cx="1287" cy="1043" r="3.5" fill="#A58CFF"/>
    <circle cx="430" cy="738" r="2.5" fill="#B8BDC6"/>
    <circle cx="1003" cy="956" r="2.5" fill="#B8BDC6"/>
  </g>
  <g opacity=".16">
    <path d="M0 240H1600M0 480H1600M0 720H1600M0 960H1600M0 1200H1600" stroke="#B8BDC6"/>
    <path d="M240 0V1600M480 0V1600M720 0V1600M960 0V1600M1200 0V1600M1440 0V1600" stroke="#B8BDC6"/>
  </g>
</svg>
